<svg xmlns="http://www.w3.org/2000/svg" xmlns:xlink="http://www.w3.org/1999/xlink" viewBox="0 0 515.4804 934.87048">
  <defs>
    <style>
      .cls-1 {
        fill: #1c0404;
      }

      .cls-2 {
        fill: #c4c4c4;
      }

      .cls-3 {
        fill: #c99f00;
      }

      .cls-4 {
        fill: url(#linear-gradient);
      }
    </style>
    <linearGradient id="linear-gradient" x1="41.70989" y1="326.73767" x2="471.77044" y2="326.73767" gradientUnits="userSpaceOnUse">
      <stop offset="0" stop-color="#c99f00"/>
      <stop offset="0.10197" stop-color="#cba30a" stop-opacity="0.9624"/>
      <stop offset="0.2563" stop-color="#d1ad24" stop-opacity="0.85862"/>
      <stop offset="0.44386" stop-color="#dabd4f" stop-opacity="0.68876"/>
      <stop offset="0.65748" stop-color="#e7d48c" stop-opacity="0.45261"/>
      <stop offset="0.89001" stop-color="#f7f0d8" stop-opacity="0.15418"/>
      <stop offset="1" stop-color="#fff" stop-opacity="0"/>
    </linearGradient>
  </defs>
  <g id="Layer_2" data-name="Layer 2">
    <g id="Layer_1-2" data-name="Layer 1">
      <g id="iPhone">
        <path class="cls-1" d="M60.81,934.87048A60.7863,60.7863,0,0,1,1.72063,859.82654L115.18108,389.455l5.00977-20.74805a60.5989,60.5989,0,0,1,53.33935-46.26953v42.56836a55.11958,55.11958,0,0,0-32.58935,39.21777L85.42132,657.96228,47.96184,829.1322A55.40567,55.40567,0,0,0,102.08,896.38025H152.6972l10.10009-33.61231a42.24329,42.24329,0,0,1,40.19287-29.88769h109.5a42.24224,42.24224,0,0,1,40.19239,29.88769l10.10156,33.61231h50.61621a55.40638,55.40638,0,0,0,54.11914-67.24609l-1.92187-8.75782L374.539,404.22205a55.5007,55.5007,0,0,0-34.58886-39.99952V322.28308A60.60449,60.60449,0,0,1,395.289,368.705l44.16016,183.07959,74.31055,308.04a60.78692,60.78692,0,0,1-59.08985,75.0459Z"/>
      </g>
      <path class="cls-2" d="M379.4113,524.999l59.12828,270.22171c-41.25979-2.54475-94.35818-11.74636-162.67884-31.35746C201.26115,742.445,146.3833,698.77873,106.02711,645.4683l48.03652-219.5482c10.61231,8.1137,21.75016,16.02448,33.41351,23.631,12.6315,8.252,25.89,16.14435,39.75692,23.50194a478.01311,478.01311,0,0,0,55.49558,25.18923q19.23771,7.28849,39.74775,13.00032,13.80241,3.84473,28.18575,6.85051Q365.6826,521.2325,379.4113,524.999Z"/>
      <path id="cross_outer" data-name="cross outer" class="cls-3" d="M329.95019,143.53V0H183.53014V143.53H2.82018V289.95h180.71V653.48H329.95019V289.95h180.71V143.53Zm151.82,103.31h-194.93V616.31h-60.19V246.84h-194.94v-60.2h194.94V37.17h60.19V186.64H481.77019Z"/>
      <g id="cross_inner" data-name="cross inner">
        <polygon class="cls-4" points="236.646 606.301 236.646 236.84 41.71 236.84 41.71 196.641 236.646 196.641 236.646 47.174 276.835 47.174 276.835 196.641 471.77 196.641 471.77 236.84 276.835 236.84 276.835 606.301 236.646 606.301"/>
      </g>
    </g>
  </g>
</svg>
