<svg id="Layer_1" data-name="Layer 1" xmlns="http://www.w3.org/2000/svg" xmlns:xlink="http://www.w3.org/1999/xlink" viewBox="0 0 515.4804 934.87048">
  <defs>
    <style>
      .cls-1 {
        fill: #3a3a3a;
      }

      .cls-2 {
        fill: #a57b26;
      }

      .cls-3 {
        fill: url(#linear-gradient);
      }

      .cls-4 {
        fill: url(#linear-gradient-2);
      }
    </style>
    <linearGradient id="linear-gradient" x1="246.08002" y1="367.34998" x2="753.91998" y2="367.34998" gradientUnits="userSpaceOnUse">
      <stop offset="0" stop-color="#ffb600"/>
      <stop offset="0.20618" stop-color="#ffb208"/>
      <stop offset="0.51798" stop-color="#ffa61c"/>
      <stop offset="0.89492" stop-color="#ff923e"/>
      <stop offset="1" stop-color="#ff8c49"/>
    </linearGradient>
    <linearGradient id="linear-gradient-2" x1="41.70989" y1="326.73767" x2="471.77044" y2="326.73767" gradientUnits="userSpaceOnUse">
      <stop offset="0" stop-color="#ffb600"/>
      <stop offset="0.08645" stop-color="#ffb502" stop-opacity="0.97034"/>
      <stop offset="0.21735" stop-color="#ffb108" stop-opacity="0.88844"/>
      <stop offset="0.37647" stop-color="#ffac12" stop-opacity="0.75433"/>
      <stop offset="0.55776" stop-color="#ffa420" stop-opacity="0.56783"/>
      <stop offset="0.75766" stop-color="#ff9a31" stop-opacity="0.32886"/>
      <stop offset="0.97031" stop-color="#ff8e46" stop-opacity="0.04239"/>
      <stop offset="1" stop-color="#ff8c49" stop-opacity="0"/>
    </linearGradient>
  </defs>
  <g id="iPhone">
    <path class="cls-1" d="M304.06982,975.48047a60.78632,60.78632,0,0,1-59.08935-75.04395L358.44092,430.06494l5.00976-20.748A60.59892,60.59892,0,0,1,416.79,363.04736v42.56836a55.11963,55.11963,0,0,0-32.58936,39.21778L328.68115,698.57227,291.22168,869.74219a55.40566,55.40566,0,0,0,54.11816,67.248H395.957l10.1001-33.6123A42.24327,42.24327,0,0,1,446.25,873.49023h109.5a42.24222,42.24222,0,0,1,40.19238,29.8877l10.10157,33.6123h50.61621a55.40639,55.40639,0,0,0,54.11914-67.24609l-1.92188-8.75781L617.79883,444.832A55.50066,55.50066,0,0,0,583.21,404.83252V362.89307a60.60449,60.60449,0,0,1,55.33887,46.42187L682.709,592.39453l74.31055,308.04a60.78692,60.78692,0,0,1-59.08984,75.0459Z" transform="translate(-243.25984 -40.60999)"/>
  </g>
  <path class="cls-2" d="M622.67113,565.60893l59.12829,270.22171c-41.2598-2.54475-94.35818-11.74635-162.67885-31.35745C444.521,783.055,389.64314,739.38872,349.287,686.07829l48.03652-219.54821c10.6123,8.11371,21.75016,16.02448,33.41351,23.631,12.6315,8.252,25.89,16.14434,39.75692,23.50194a478.00987,478.00987,0,0,0,55.49558,25.18922q19.23771,7.2885,39.74774,13.00033,13.80242,3.84472,28.18575,6.8505Q608.94244,561.84249,622.67113,565.60893Z" transform="translate(-243.25984 -40.60999)"/>
  <path id="cross_outer" data-name="cross outer" class="cls-3" d="M573.21,184.14V40.61H426.79V184.14H246.08V330.56H426.79V694.09H573.21V330.56H753.92V184.14ZM725.03,287.45H530.1V656.92H469.91V287.45H274.97v-60.2H469.91V77.78H530.1V227.25H725.03Z" transform="translate(-243.25984 -40.60999)"/>
  <g id="cross_inner" data-name="cross inner">
    <polygon class="cls-4" points="236.646 606.301 236.646 236.84 41.71 236.84 41.71 196.641 236.646 196.641 236.646 47.174 276.835 47.174 276.835 196.641 471.77 196.641 471.77 236.84 276.835 236.84 276.835 606.301 236.646 606.301"/>
  </g>
</svg>
